<?xml version="1.0" encoding="utf-8"?>
<!-- Generator: Adobe Illustrator 25.2.0, SVG Export Plug-In . SVG Version: 6.00 Build 0)  -->
<svg version="1.1" id="Layer_1" xmlns="http://www.w3.org/2000/svg" xmlns:xlink="http://www.w3.org/1999/xlink" x="0px" y="0px"
	 viewBox="0 0 350 612" style="enable-background:new 0 0 350 612;" xml:space="preserve">
<style type="text/css">
	.st0{fill:#FFFFFF;}
</style>
<rect y="0" width="349.7" height="612"/>
<path class="st0" d="M253.3,174.2l-4.5,52.1c-25.9,1.7-53,5.5-82.8,12.1l78.2,41.1l-3.8,43.8c-21.1,1.8-43.1,4.9-66.7,9.9l62.3,41.1
	l-3.8,44.1c-29.8,3.3-61.6,9.4-97.4,19.5l-7-42.6c16.7-4.7,32.5-8.6,47.6-11.7l-55.5-36.7l0,0l-7-42.5c20.6-6.1,39.8-11,58.1-14.7
	l-66-34.7c-0.1,0-8.5-50.4-8.5-50.4C157.6,184.9,207.3,176.4,253.3,174.2z"/>
</svg>
