<?xml version="1.0" encoding="utf-8"?>
<!-- Generator: Adobe Illustrator 25.2.0, SVG Export Plug-In . SVG Version: 6.00 Build 0)  -->
<svg version="1.1" id="Layer_1" xmlns="http://www.w3.org/2000/svg" xmlns:xlink="http://www.w3.org/1999/xlink" x="0px" y="0px"
	 viewBox="0 0 600 600" style="enable-background:new 0 0 600 600;" xml:space="preserve">
<path d="M93.5,179.5v241c0,9.9,8.1,18,18,18h377c9.9,0,18-8.1,18-18v-241c0-9.9-8.1-18-18-18h-377
	C101.6,161.5,93.5,169.6,93.5,179.5z M406.1,199.4c0.9,0,1.4,1.2,0.6,1.8l-75.6,61.2l-28.9,23.4l-1.5,1.2c-0.7,0.6-1.8,0.6-2.5,0
	l-1.4-1.1l-29-23.3l-76.1-61.3c-0.7-0.6-0.3-1.8,0.6-1.8H406.1z M135.4,203.3l104.6,84.2c0.9,0.7,1,2.1,0.2,3L135.6,396
	c-1.9,1.9-5.1,0.6-5.1-2.1V205.6C130.5,203.1,133.4,201.7,135.4,203.3z M183.9,399.8l86.1-86.9c0.4-0.4,0.9-0.4,1.3-0.1l26.9,21.7
	c0.7,0.6,1.8,0.6,2.5,0l27-21.9c0.4-0.3,1-0.3,1.3,0.1l86.7,87.1c0.6,0.6,0.2,1.7-0.7,1.7H184.6
	C183.7,401.5,183.3,400.4,183.9,399.8z M464.4,396.2L359,290.2c-0.8-0.8-0.8-2.2,0.2-3l105.5-84c2-1.6,4.9-0.2,4.9,2.3l0,188.5
	C469.5,396.7,466.3,398.1,464.4,396.2z"/>
</svg>
