<?xml version="1.0" encoding="utf-8"?>
<!-- Generator: Adobe Illustrator 25.2.0, SVG Export Plug-In . SVG Version: 6.00 Build 0)  -->
<svg version="1.1" id="Layer_1" xmlns="http://www.w3.org/2000/svg" xmlns:xlink="http://www.w3.org/1999/xlink" x="0px" y="0px"
	 viewBox="0 0 600 600" style="enable-background:new 0 0 600 600;" xml:space="preserve">
<path d="M300,87.7C182.9,87.7,87.7,182.9,87.7,300S182.9,512.3,300,512.3S512.3,417.1,512.3,300S417.1,87.7,300,87.7z M456.1,220.3
	h-55.7c-4.7-23.9-11.6-46-20.4-65.1c-2.4-5.2-5-10.2-7.6-14.8C408.5,156.8,438.1,185.1,456.1,220.3z M475.3,300
	c0,14.7-1.8,29-5.3,42.7h-64.2c1.4-13.9,2.1-28.2,2.1-42.7c0-14.5-0.7-28.8-2.1-42.7H470C473.5,271,475.3,285.3,475.3,300z
	 M300,475.3c-15.8,0-33.2-17.2-46.5-46c-6.7-14.6-12.2-31.4-16.2-49.6h125.4c-4,18.2-9.5,35-16.2,49.6
	C333.2,458.1,315.8,475.3,300,475.3z M231.3,342.7c-1.5-13.8-2.3-28.1-2.3-42.7c0-14.6,0.8-28.9,2.3-42.7h137.4
	c1.5,13.8,2.3,28.1,2.3,42.7c0,14.6-0.8,28.9-2.3,42.7H231.3z M124.7,300c0-14.7,1.8-29,5.3-42.7h64.2c-1.4,13.9-2.1,28.2-2.1,42.7
	c0,14.5,0.7,28.8,2.1,42.7H130C126.5,329,124.7,314.7,124.7,300z M300,124.7c15.8,0,33.2,17.2,46.5,46c6.7,14.6,12.2,31.4,16.2,49.6
	H237.3c4-18.2,9.5-35,16.2-49.6C266.8,141.9,284.2,124.7,300,124.7z M227.5,140.4c-2.6,4.7-5.2,9.6-7.6,14.8
	c-8.8,19.1-15.7,41.2-20.4,65.1h-55.7C161.9,185.1,191.5,156.8,227.5,140.4z M143.9,379.7h55.7c4.7,23.9,11.6,46,20.4,65.1
	c2.4,5.2,5,10.2,7.6,14.8C191.5,443.2,161.9,414.9,143.9,379.7z M372.5,459.6c2.6-4.7,5.2-9.6,7.6-14.8
	c8.8-19.1,15.7-41.2,20.4-65.1h55.7C438.1,414.9,408.5,443.2,372.5,459.6z"/>
</svg>
